<svg width="136" height="136" viewBox="0 0 136 136" fill="none" xmlns="http://www.w3.org/2000/svg">
<g opacity="0.5">
<path d="M107.667 17H28.3333C22.0741 17 17 22.0741 17 28.3333V107.667C17 113.926 22.0741 119 28.3333 119H107.667C113.926 119 119 113.926 119 107.667V28.3333C119 22.0741 113.926 17 107.667 17Z" stroke="#ddd" stroke-width="1.5" stroke-linecap="round" stroke-linejoin="round"/>
<path d="M48.1665 56.6665C52.8609 56.6665 56.6665 52.8609 56.6665 48.1665C56.6665 43.4721 52.8609 39.6665 48.1665 39.6665C43.4721 39.6665 39.6665 43.4721 39.6665 48.1665C39.6665 52.8609 43.4721 56.6665 48.1665 56.6665Z" stroke="#ddd" stroke-width="1.5" stroke-linecap="round" stroke-linejoin="round"/>
<path d="M119 84.9998L90.6668 56.6665L28.3335 119" stroke="#ddd" stroke-width="1.5" stroke-linecap="round" stroke-linejoin="round"/>
</g>
</svg>
