<svg width="201" height="108" viewBox="0 0 201 108" fill="none" xmlns="http://www.w3.org/2000/svg">
<path d="M85 32C85 21.5066 93.5066 13 104 13H179C189.493 13 198 21.5066 198 32V32C198 42.4934 189.493 51 179 51H104C93.5066 51 85 42.4934 85 32V32Z" fill="url(#paint0_linear)"/>
<rect y="60" width="110" height="38" rx="19" fill="url(#paint1_linear)"/>
<mask id="mask0" mask-type="alpha" maskUnits="userSpaceOnUse" x="4" y="13" width="74" height="38">
<path d="M4.31274 13.6275H12.7304V43.1412H30.9686V50H4.31274V13.6275ZM57.8736 50.6235C54.0978 50.6235 50.6857 49.8095 47.6374 48.1814C44.6237 46.5533 42.2508 44.319 40.5188 41.4784C38.8214 38.6033 37.9727 35.3817 37.9727 31.8138C37.9727 28.2458 38.8214 25.0416 40.5188 22.201C42.2508 19.3259 44.6237 17.0742 47.6374 15.4461C50.6857 13.818 54.0978 13.004 57.8736 13.004C61.6495 13.004 65.0442 13.818 68.0579 15.4461C71.0717 17.0742 73.4445 19.3259 75.1766 22.201C76.9086 25.0416 77.7746 28.2458 77.7746 31.8138C77.7746 35.3817 76.9086 38.6033 75.1766 41.4784C73.4445 44.319 71.0717 46.5533 68.0579 48.1814C65.0442 49.8095 61.6495 50.6235 57.8736 50.6235ZM57.8736 43.453C60.0214 43.453 61.9612 42.968 63.6932 41.9981C65.4253 40.9935 66.7762 39.6079 67.7462 37.8412C68.7507 36.0745 69.253 34.0654 69.253 31.8138C69.253 29.5621 68.7507 27.553 67.7462 25.7863C66.7762 24.0197 65.4253 22.6514 63.6932 21.6814C61.9612 20.6769 60.0214 20.1746 57.8736 20.1746C55.7259 20.1746 53.7861 20.6769 52.054 21.6814C50.322 22.6514 48.9537 24.0197 47.9492 25.7863C46.9792 27.553 46.4943 29.5621 46.4943 31.8138C46.4943 34.0654 46.9792 36.0745 47.9492 37.8412C48.9537 39.6079 50.322 40.9935 52.054 41.9981C53.7861 42.968 55.7259 43.453 57.8736 43.453Z" fill="black"/>
</mask>
<g mask="url(#mask0)">
<rect x="-10" width="108" height="53" fill="url(#paint2_linear)"/>
</g>
<mask id="mask1" mask-type="alpha" maskUnits="userSpaceOnUse" x="119" y="61" width="78" height="36">
<path d="M144.688 78.672H151.792V92.304C149.968 93.68 147.856 94.736 145.456 95.472C143.056 96.208 140.64 96.576 138.208 96.576C134.72 96.576 131.584 95.84 128.8 94.368C126.016 92.864 123.824 90.8 122.224 88.176C120.656 85.52 119.872 82.528 119.872 79.2C119.872 75.872 120.656 72.896 122.224 70.272C123.824 67.616 126.032 65.552 128.848 64.08C131.664 62.576 134.832 61.824 138.352 61.824C141.296 61.824 143.968 62.32 146.368 63.312C148.768 64.304 150.784 65.744 152.416 67.632L147.424 72.24C145.024 69.712 142.128 68.448 138.736 68.448C136.592 68.448 134.688 68.896 133.024 69.792C131.36 70.688 130.064 71.952 129.136 73.584C128.208 75.216 127.744 77.088 127.744 79.2C127.744 81.28 128.208 83.136 129.136 84.768C130.064 86.4 131.344 87.68 132.976 88.608C134.64 89.504 136.528 89.952 138.64 89.952C140.88 89.952 142.896 89.472 144.688 88.512V78.672ZM178.167 96.576C174.679 96.576 171.527 95.824 168.711 94.32C165.927 92.816 163.735 90.752 162.135 88.128C160.567 85.472 159.783 82.496 159.783 79.2C159.783 75.904 160.567 72.944 162.135 70.32C163.735 67.664 165.927 65.584 168.711 64.08C171.527 62.576 174.679 61.824 178.167 61.824C181.655 61.824 184.791 62.576 187.575 64.08C190.359 65.584 192.551 67.664 194.151 70.32C195.751 72.944 196.551 75.904 196.551 79.2C196.551 82.496 195.751 85.472 194.151 88.128C192.551 90.752 190.359 92.816 187.575 94.32C184.791 95.824 181.655 96.576 178.167 96.576ZM178.167 89.952C180.151 89.952 181.943 89.504 183.543 88.608C185.143 87.68 186.391 86.4 187.287 84.768C188.215 83.136 188.679 81.28 188.679 79.2C188.679 77.12 188.215 75.264 187.287 73.632C186.391 72 185.143 70.736 183.543 69.84C181.943 68.912 180.151 68.448 178.167 68.448C176.183 68.448 174.391 68.912 172.791 69.84C171.191 70.736 169.927 72 168.999 73.632C168.103 75.264 167.655 77.12 167.655 79.2C167.655 81.28 168.103 83.136 168.999 84.768C169.927 86.4 171.191 87.68 172.791 88.608C174.391 89.504 176.183 89.952 178.167 89.952Z" fill="black"/>
</mask>
<g mask="url(#mask1)">
<rect x="116" y="48" width="82" height="58" fill="url(#paint3_linear)"/>
</g>
<defs>
<linearGradient id="paint0_linear" x1="200.797" y1="51" x2="85" y2="51" gradientUnits="userSpaceOnUse">
<stop stop-color="#00B3E5"/>
<stop offset="0.797101" stop-color="#3CBEC9"/>
</linearGradient>
<linearGradient id="paint1_linear" x1="112.723" y1="98" x2="8.3936e-07" y2="98" gradientUnits="userSpaceOnUse">
<stop stop-color="#3CBEC9"/>
<stop offset="1" stop-color="#8FCEA1"/>
</linearGradient>
<linearGradient id="paint2_linear" x1="100.673" y1="53" x2="-10" y2="53" gradientUnits="userSpaceOnUse">
<stop stop-color="#3CBEC9"/>
<stop offset="1" stop-color="#8FCEA1"/>
</linearGradient>
<linearGradient id="paint3_linear" x1="200.03" y1="106" x2="116" y2="106" gradientUnits="userSpaceOnUse">
<stop stop-color="#00B3E5"/>
<stop offset="0.797101" stop-color="#3CBEC9"/>
</linearGradient>
</defs>
</svg>
